<svg xmlns="http://www.w3.org/2000/svg" xmlns:xlink="http://www.w3.org/1999/xlink" width="151" height="47.76" viewBox="0 0 151 47.76">
  <defs>
    <clipPath id="clip-path">
      <rect id="Rectangle_625" data-name="Rectangle 625" width="151" height="47.76" fill="#fff"/>
    </clipPath>
  </defs>
  <g id="onelocbusiness_logo" clip-path="url(#clip-path)">
    <path id="Path_42" data-name="Path 42" d="M56.4,27.273H49.6v-14.7a7.57,7.57,0,0,0-1.114-4.6,3.688,3.688,0,0,0-3.093-1.451,6.2,6.2,0,0,0-2.766.693,8.655,8.655,0,0,0-2.51,1.907,7.415,7.415,0,0,0-1.624,2.8V27.273H31.7V4.954L37.835.387V5.858A9.879,9.879,0,0,1,40.42,2.974a11.691,11.691,0,0,1,3.626-1.806A14.809,14.809,0,0,1,48.385.541a8.431,8.431,0,0,1,4.083.88A6.094,6.094,0,0,1,54.9,3.777a10.437,10.437,0,0,1,1.165,3.336,21.5,21.5,0,0,1,.331,3.76Z" transform="translate(-2.747 -0.034)" fill="#fff"/>
    <path id="Path_43" data-name="Path 43" d="M73.951,27.239a14.952,14.952,0,0,1-5.783-1.077,13.141,13.141,0,0,1-4.413-2.96,13.46,13.46,0,0,1-3.8-9.455,14.113,14.113,0,0,1,1.7-6.875,12.985,12.985,0,0,1,4.871-4.99A14.4,14.4,0,0,1,74,0a14.072,14.072,0,0,1,7.455,1.884A12.8,12.8,0,0,1,86.2,6.858a13.94,13.94,0,0,1,1.649,6.656c0,.4-.019.813-.052,1.232s-.068.762-.1,1.03H67.154a7.537,7.537,0,0,0,1.191,3.467A6.451,6.451,0,0,0,70.881,21.5a7.377,7.377,0,0,0,3.323.767,7.817,7.817,0,0,0,3.829-.988,5.223,5.223,0,0,0,2.461-2.613l5.834,1.625a11.084,11.084,0,0,1-2.766,3.6,13.264,13.264,0,0,1-4.235,2.46,15.612,15.612,0,0,1-5.376.888M67,11.465H80.9a7.757,7.757,0,0,0-1.142-3.447A6.571,6.571,0,0,0,77.3,5.739a7.055,7.055,0,0,0-3.4-.819,6.8,6.8,0,0,0-3.323.819,6.626,6.626,0,0,0-2.435,2.279A7.734,7.734,0,0,0,67,11.465" transform="translate(-5.195 0)" fill="#fff"/>
    <path id="Path_44" data-name="Path 44" d="M91.7,4.393,98.5.387V18.334a3.656,3.656,0,0,0,.609,2.471,2.209,2.209,0,0,0,1.674.636,7.259,7.259,0,0,0,1.673-.2,7.876,7.876,0,0,0,1.522-.508l.912,5.174a13.108,13.108,0,0,1-3.195,1.016,17.513,17.513,0,0,1-3.3.355,6.8,6.8,0,0,1-4.948-1.705A6.469,6.469,0,0,1,91.7,20.712Z" transform="translate(-7.947 -0.034)" fill="#fff"/>
    <path id="Path_45" data-name="Path 45" d="M119.035,27.239a15.061,15.061,0,0,1-5.835-1.08,12.629,12.629,0,0,1-4.388-2.985,13.443,13.443,0,0,1-2.764-4.363,14.466,14.466,0,0,1,0-10.383,13.455,13.455,0,0,1,2.764-4.366A12.689,12.689,0,0,1,113.2,1.08,15.044,15.044,0,0,1,119.035,0a14.836,14.836,0,0,1,5.805,1.08,12.9,12.9,0,0,1,7.153,7.35,14.5,14.5,0,0,1,.937,5.215,14.366,14.366,0,0,1-.937,5.168,13.135,13.135,0,0,1-2.738,4.363,12.637,12.637,0,0,1-4.388,2.985,15.06,15.06,0,0,1-5.833,1.08m-6.95-13.6A8.7,8.7,0,0,0,113,17.7a6.961,6.961,0,0,0,2.485,2.762,6.489,6.489,0,0,0,3.552.995,6.3,6.3,0,0,0,3.5-1.019,7.388,7.388,0,0,0,2.512-2.787,8.5,8.5,0,0,0,.937-4.055,8.554,8.554,0,0,0-.937-4.031,7.151,7.151,0,0,0-2.512-2.787,6.674,6.674,0,0,0-7.05.025A7.184,7.184,0,0,0,113,9.589a8.7,8.7,0,0,0-.912,4.055" transform="translate(-9.107 0)" fill="#fff"/>
    <path id="Path_46" data-name="Path 46" d="M150.777,27.239a15.043,15.043,0,0,1-5.834-1.08,12.718,12.718,0,0,1-4.413-3.009,13.9,13.9,0,0,1-2.815-4.39,13.723,13.723,0,0,1-.988-5.166,13.846,13.846,0,0,1,1.7-6.8,12.9,12.9,0,0,1,4.844-4.941A14.4,14.4,0,0,1,150.726,0a14.017,14.017,0,0,1,7.4,1.878A11.947,11.947,0,0,1,162.747,6.8L156.1,8.827a5.977,5.977,0,0,0-2.282-2.258,6.383,6.383,0,0,0-3.144-.786,6.663,6.663,0,0,0-6.036,3.706,8.822,8.822,0,0,0-.912,4.105,8.5,8.5,0,0,0,.937,4.055,7.358,7.358,0,0,0,2.512,2.787,6.3,6.3,0,0,0,3.5,1.019,6.537,6.537,0,0,0,2.308-.406,6.738,6.738,0,0,0,1.952-1.114,4.433,4.433,0,0,0,1.268-1.625l6.645,2.029a10.9,10.9,0,0,1-2.662,3.552,12.858,12.858,0,0,1-4.109,2.46,14.978,14.978,0,0,1-5.3.888" transform="translate(-11.848 0)" fill="#fff"/>
    <path id="Path_47" data-name="Path 47" d="M26.91,8.429a12.9,12.9,0,0,0-7.154-7.35A14.849,14.849,0,0,0,13.95,0,15.064,15.064,0,0,0,8.115,1.08,12.7,12.7,0,0,0,3.727,4.064,13.461,13.461,0,0,0,.964,8.429a14.469,14.469,0,0,0,0,10.384,13.453,13.453,0,0,0,2.764,4.363,12.37,12.37,0,0,0,3.1,2.293l6.432,5.205a1.264,1.264,0,0,0,1.6-.011l6.287-5.241a12.365,12.365,0,0,0,3.017-2.247,13.147,13.147,0,0,0,2.739-4.363,14.387,14.387,0,0,0,.937-5.169,14.519,14.519,0,0,0-.937-5.215m-19,1.16A7.191,7.191,0,0,1,10.4,6.8,6.4,6.4,0,0,1,13.95,5.783a6.419,6.419,0,0,1,3.5.995A7.163,7.163,0,0,1,19.96,9.565,8.554,8.554,0,0,1,20.9,13.6a8.511,8.511,0,0,1-.937,4.056,7.385,7.385,0,0,1-2.512,2.786,6.3,6.3,0,0,1-3.5,1.019,6.491,6.491,0,0,1-3.552-.995A6.971,6.971,0,0,1,7.913,17.7,8.7,8.7,0,0,1,7,13.644a8.7,8.7,0,0,1,.912-4.055" transform="translate(0 0)" fill="#fff"/>
    <path id="Path_48" data-name="Path 48" d="M33.3,50.49V40.13H31.7v-1.2h1.6v-.311a6.526,6.526,0,0,1,.412-2.44,3.432,3.432,0,0,1,1.182-1.564,3.068,3.068,0,0,1,1.818-.543,4.534,4.534,0,0,1,1.338.2,3.9,3.9,0,0,1,1.113.532L38.7,35.893a2.045,2.045,0,0,0-.759-.377A3.413,3.413,0,0,0,37,35.383a1.849,1.849,0,0,0-1.617.821,4.155,4.155,0,0,0-.569,2.374v.355h3.21v1.2h-3.21V50.49Z" transform="translate(-2.747 -2.953)" fill="#fff"/>
    <path id="Path_49" data-name="Path 49" d="M45.379,51.161a5.569,5.569,0,0,1-4.136-1.776,5.993,5.993,0,0,1-1.192-1.9,6.072,6.072,0,0,1-.424-2.261,6.193,6.193,0,0,1,.424-2.305,5.883,5.883,0,0,1,1.2-1.9,5.7,5.7,0,0,1,1.839-1.3,5.583,5.583,0,0,1,2.308-.474,5.5,5.5,0,0,1,2.3.474,5.732,5.732,0,0,1,1.829,1.3,5.914,5.914,0,0,1,1.2,1.9,6.211,6.211,0,0,1,.423,2.305,6.089,6.089,0,0,1-.423,2.261,6.011,6.011,0,0,1-1.193,1.9,5.567,5.567,0,0,1-4.158,1.776m-4.213-5.912a4.783,4.783,0,0,0,.568,2.324,4.4,4.4,0,0,0,1.527,1.652,3.885,3.885,0,0,0,2.118.606,3.837,3.837,0,0,0,2.118-.617,4.535,4.535,0,0,0,1.538-1.685,4.973,4.973,0,0,0,0-4.658A4.558,4.558,0,0,0,47.5,41.2a3.837,3.837,0,0,0-2.118-.617,3.688,3.688,0,0,0-2.107.638,4.8,4.8,0,0,0-2.106,4.031" transform="translate(-3.434 -3.401)" fill="#fff"/>
    <path id="Path_50" data-name="Path 50" d="M60.825,40.719a4.813,4.813,0,0,0-2.664.843,4.226,4.226,0,0,0-1.616,2.2v7.188H55.028V39.433h1.428v2.729a5.461,5.461,0,0,1,1.594-1.975,3.965,3.965,0,0,1,2.108-.843c.148-.015.279-.022.389-.022a1.476,1.476,0,0,1,.279.022Z" transform="translate(-4.769 -3.408)" fill="#fff"/>
    <path id="Path_51" data-name="Path 51" d="M74.945,50.733a4.791,4.791,0,0,1-2.52-.7,5.218,5.218,0,0,1-1.807-1.764v2.24H69.259V34.318h1.516v7.12a6.606,6.606,0,0,1,1.872-1.9,4.508,4.508,0,0,1,2.541-.721,4.672,4.672,0,0,1,2.2.507,5.255,5.255,0,0,1,1.66,1.357A6.04,6.04,0,0,1,80.094,42.6,6.9,6.9,0,0,1,80.45,44.8a6.225,6.225,0,0,1-.412,2.272,6,6,0,0,1-1.171,1.886,5.662,5.662,0,0,1-1.751,1.3,4.972,4.972,0,0,1-2.172.474M74.587,49.4a4.068,4.068,0,0,0,1.739-.374,4.169,4.169,0,0,0,1.382-1.035,4.857,4.857,0,0,0,1.2-3.194,5.1,5.1,0,0,0-.524-2.28A4.47,4.47,0,0,0,76.938,40.8a3.684,3.684,0,0,0-2.173-.649,3.573,3.573,0,0,0-1.66.4A4.784,4.784,0,0,0,71.744,41.6a6.085,6.085,0,0,0-.969,1.42v3.568a2.482,2.482,0,0,0,.469,1.112,3.642,3.642,0,0,0,.947.892,5.49,5.49,0,0,0,1.193.595,3.6,3.6,0,0,0,1.2.22" transform="translate(-6.002 -2.974)" fill="#fff"/>
    <path id="Path_52" data-name="Path 52" d="M84.2,46.205V39.443h1.516v6.495a5.149,5.149,0,0,0,.68,2.937,2.3,2.3,0,0,0,2.018.972,4.065,4.065,0,0,0,1.728-.386,4.541,4.541,0,0,0,1.482-1.1,4.861,4.861,0,0,0,.98-1.665V39.443h1.517v9.7a.643.643,0,0,0,.133.452.591.591,0,0,0,.4.166v1.2l-.424.033c-.1.007-.2.011-.29.011a1.257,1.257,0,0,1-.769-.353,1.073,1.073,0,0,1-.346-.751l-.045-1.547A5.591,5.591,0,0,1,87.9,51.178a3.223,3.223,0,0,1-2.764-1.26,6.169,6.169,0,0,1-.937-3.713" transform="translate(-7.296 -3.418)" fill="#fff"/>
    <path id="Path_53" data-name="Path 53" d="M102.538,51.161a7.4,7.4,0,0,1-2.652-.466,5.571,5.571,0,0,1-2.118-1.419l.624-1.065a6.723,6.723,0,0,0,1.973,1.32,5.449,5.449,0,0,0,2.107.411,4.061,4.061,0,0,0,2.208-.539,1.73,1.73,0,0,0,.847-1.551,1.321,1.321,0,0,0-.413-1.048,3.14,3.14,0,0,0-1.181-.6q-.769-.232-1.839-.5a14.23,14.23,0,0,1-2.018-.7,2.977,2.977,0,0,1-1.226-.926,2.414,2.414,0,0,1-.413-1.467A2.969,2.969,0,0,1,99,40.76a3.54,3.54,0,0,1,1.561-1.125,6.089,6.089,0,0,1,2.219-.385,6.173,6.173,0,0,1,2.363.421,4.333,4.333,0,0,1,1.672,1.175l-.736,1.02a3.871,3.871,0,0,0-1.482-1.053,5.084,5.084,0,0,0-1.906-.344,4.858,4.858,0,0,0-1.36.188,2.33,2.33,0,0,0-1.059.617,1.632,1.632,0,0,0-.412,1.179,1.371,1.371,0,0,0,.311.96,2.357,2.357,0,0,0,.937.574q.623.232,1.538.5,1.314.352,2.3.716a3.886,3.886,0,0,1,1.516.937A2.266,2.266,0,0,1,107,47.744a2.946,2.946,0,0,1-1.226,2.513,5.32,5.32,0,0,1-3.233.9" transform="translate(-8.472 -3.401)" fill="#fff"/>
    <path id="Path_54" data-name="Path 54" d="M110.6,39h1.516V50.512H110.6Zm.068-4.681h1.382V36.47h-1.382Z" transform="translate(-9.585 -2.974)" fill="#fff"/>
    <path id="Path_55" data-name="Path 55" d="M125.691,50.939h-1.516V44.524a5.628,5.628,0,0,0-.6-2.964,2.089,2.089,0,0,0-1.9-.937,3.948,3.948,0,0,0-1.761.429,4.981,4.981,0,0,0-1.526,1.166,4.442,4.442,0,0,0-.948,1.683v7.036h-1.516V39.426h1.382v2.623a5.176,5.176,0,0,1,1.227-1.467,5.807,5.807,0,0,1,1.716-.982,5.713,5.713,0,0,1,1.985-.353,3.459,3.459,0,0,1,1.628.353,2.737,2.737,0,0,1,1.07,1,4.671,4.671,0,0,1,.58,1.565,10.8,10.8,0,0,1,.178,2.04Z" transform="translate(-10.046 -3.401)" fill="#fff"/>
    <path id="Path_56" data-name="Path 56" d="M135.1,51.162a5.661,5.661,0,0,1-4.168-1.779,6.04,6.04,0,0,1-1.215-1.912,6.177,6.177,0,0,1-.435-2.321,5.974,5.974,0,0,1,.746-2.951,5.751,5.751,0,0,1,2.063-2.146,5.615,5.615,0,0,1,2.987-.8,5.468,5.468,0,0,1,3,.816,5.869,5.869,0,0,1,2.018,2.148,5.94,5.94,0,0,1,.735,2.919v.342a1.049,1.049,0,0,1-.023.253h-9.942a5,5,0,0,0,.7,2.2,4.463,4.463,0,0,0,1.539,1.523,3.971,3.971,0,0,0,2.062.563,4.294,4.294,0,0,0,2.151-.576,3.187,3.187,0,0,0,1.416-1.509l1.315.354a4.332,4.332,0,0,1-1.092,1.487,5.274,5.274,0,0,1-1.727,1.031,6.11,6.11,0,0,1-2.13.366m-4.28-6.522H139.4a4.71,4.71,0,0,0-.68-2.195,4.306,4.306,0,0,0-1.538-1.482,4.158,4.158,0,0,0-2.085-.538,4.1,4.1,0,0,0-2.073.538,4.3,4.3,0,0,0-1.526,1.492,4.733,4.733,0,0,0-.68,2.185" transform="translate(-11.203 -3.401)" fill="#fff"/>
    <path id="Path_57" data-name="Path 57" d="M148.2,51.161a7.4,7.4,0,0,1-2.652-.466,5.571,5.571,0,0,1-2.118-1.419l.624-1.065a6.723,6.723,0,0,0,1.973,1.32,5.449,5.449,0,0,0,2.107.411,4.061,4.061,0,0,0,2.208-.539,1.73,1.73,0,0,0,.847-1.551,1.321,1.321,0,0,0-.413-1.048,3.14,3.14,0,0,0-1.181-.6q-.769-.232-1.839-.5a14.229,14.229,0,0,1-2.018-.7,2.977,2.977,0,0,1-1.226-.926,2.414,2.414,0,0,1-.413-1.467,2.969,2.969,0,0,1,.568-1.864,3.54,3.54,0,0,1,1.561-1.125,6.089,6.089,0,0,1,2.219-.385,6.173,6.173,0,0,1,2.363.421,4.333,4.333,0,0,1,1.672,1.175l-.736,1.02a3.871,3.871,0,0,0-1.482-1.053,5.084,5.084,0,0,0-1.906-.344,4.858,4.858,0,0,0-1.36.188,2.33,2.33,0,0,0-1.059.617,1.633,1.633,0,0,0-.412,1.179,1.371,1.371,0,0,0,.311.96,2.357,2.357,0,0,0,.937.574q.623.232,1.538.5,1.314.352,2.3.716a3.886,3.886,0,0,1,1.516.937,2.266,2.266,0,0,1,.535,1.609,2.946,2.946,0,0,1-1.226,2.513,5.32,5.32,0,0,1-3.233.9" transform="translate(-12.43 -3.401)" fill="#fff"/>
    <path id="Path_58" data-name="Path 58" d="M159.992,51.161a7.4,7.4,0,0,1-2.652-.466,5.571,5.571,0,0,1-2.118-1.419l.624-1.065a6.723,6.723,0,0,0,1.973,1.32,5.449,5.449,0,0,0,2.107.411,4.061,4.061,0,0,0,2.208-.539,1.73,1.73,0,0,0,.847-1.551,1.321,1.321,0,0,0-.413-1.048,3.14,3.14,0,0,0-1.181-.6q-.769-.232-1.839-.5a14.23,14.23,0,0,1-2.018-.7,2.977,2.977,0,0,1-1.226-.926,2.414,2.414,0,0,1-.413-1.467,2.969,2.969,0,0,1,.568-1.864,3.54,3.54,0,0,1,1.561-1.125,6.089,6.089,0,0,1,2.219-.385,6.173,6.173,0,0,1,2.363.421,4.333,4.333,0,0,1,1.672,1.175l-.736,1.02a3.871,3.871,0,0,0-1.482-1.053,5.084,5.084,0,0,0-1.906-.344,4.858,4.858,0,0,0-1.36.188,2.33,2.33,0,0,0-1.059.617,1.633,1.633,0,0,0-.412,1.179,1.371,1.371,0,0,0,.311.96,2.357,2.357,0,0,0,.937.574q.623.232,1.538.5,1.314.352,2.3.716a3.886,3.886,0,0,1,1.516.937,2.266,2.266,0,0,1,.535,1.609,2.946,2.946,0,0,1-1.226,2.513,5.32,5.32,0,0,1-3.233.9" transform="translate(-13.451 -3.401)" fill="#fff"/>
  </g>
</svg>
