<svg xmlns="http://www.w3.org/2000/svg" width="225" height="255.689" viewBox="0 0 225 255.689">
  <g id="onelocimg_vector" transform="translate(-122.478 -28.059)">
    <g id="Group_667" data-name="Group 667" transform="translate(122.478 28.059)">
      <path id="Path_70" data-name="Path 70" d="M171.434,265.389c-.063-.316-.348-.379-.569-.506a66.882,66.882,0,0,1-6.957-4.49,45.94,45.94,0,0,1-6.229-5.913,77.911,77.911,0,0,1-6.324-8.411,54.323,54.323,0,0,1-3.826-6.735,41.148,41.148,0,0,1-2.814-8.633,25.893,25.893,0,0,1-.632-6.229,44.976,44.976,0,0,1,.538-5.059,21.793,21.793,0,0,1,.569-3.194,54.65,54.65,0,0,1,2.972-8.253c1.3-2.688,2.53-5.376,3.731-8.127,1.044-2.4,2.087-4.838,3.036-7.273.632-1.581,1.075-3.225,1.549-4.87a45.269,45.269,0,0,0,1.17-5.755,47.176,47.176,0,0,0,.348-6.672,49.86,49.86,0,0,0-.379-5.787c-.19-1.613-.569-3.194-.822-4.775-.253-1.391-.474-2.783-.854-4.111a12.807,12.807,0,0,0-.791-2.182,49.185,49.185,0,0,0-4.522-8.063c-1.265-1.739-2.593-3.447-3.921-5.123-1.17-1.518-2.435-2.972-3.7-4.4-2.34-2.625-4.617-5.344-6.7-8.19a85.132,85.132,0,0,1-7.842-12.743,43.988,43.988,0,0,1-2.941-7.905,85.955,85.955,0,0,1-1.961-8.443c-.285-1.644-.569-3.289-.759-4.933a60.341,60.341,0,0,1-.253-9.55,45.009,45.009,0,0,1,.632-6.862,49.062,49.062,0,0,1,2.15-7.652c.538-1.549,1.107-3.1,1.644-4.648a47.863,47.863,0,0,1,2.846-6.83,62.2,62.2,0,0,1,6.419-9.961c1.012-1.3,2.15-2.5,3.225-3.731,1.834-2.055,3.763-4.079,5.723-6.04a57.309,57.309,0,0,1,4.459-3.858c1.423-1.138,2.846-2.213,4.332-3.257a36.691,36.691,0,0,1,8.253-4.142,68.429,68.429,0,0,1,9.708-2.53c1.992-.411,4.016-.727,6.04-.98a44.988,44.988,0,0,1,5.47-.379c1.012,0,2.024-.19,3.036-.126,1.36.095,2.719.095,4.048.19a77.683,77.683,0,0,1,11.131,1.771,128.081,128.081,0,0,1,13.66,4.111,54.326,54.326,0,0,1,8.822,4.079c2.909,1.644,5.787,3.383,8.727,4.965,3.257,1.771,6.419,3.7,9.581,5.6,2.182,1.3,4.364,2.561,6.577,3.763,2.372,1.3,4.712,2.656,7.02,4.111,2.024,1.265,4.111,2.466,6.2,3.6a63.651,63.651,0,0,0,6.166,2.814,18.072,18.072,0,0,1,2.119.949A40.38,40.38,0,0,0,276.2,66.4a89.381,89.381,0,0,0,10.277,3.1c1.644.379,3.32.664,5,.885,2.182.285,4.332.822,6.482,1.2,1.929.348,3.858.7,5.787,1.075a63.24,63.24,0,0,1,10.245,2.625c1.644.6,3.384.917,5.028,1.518,1.676.6,3.32,1.233,4.965,1.961a21.365,21.365,0,0,1,4.142,2.53,54.793,54.793,0,0,1,4.68,3.826,37.164,37.164,0,0,1,5.787,7.178,83.311,83.311,0,0,1,4.4,7.874,44.373,44.373,0,0,1,3.6,10.119,47.642,47.642,0,0,1,.759,5.186c.158,1.9.063,3.763.126,5.66a27.276,27.276,0,0,1-.538,5.312,51.837,51.837,0,0,1-2.308,8.7,56.74,56.74,0,0,1-3.668,7.969c-.727,1.265-1.455,2.53-2.277,3.763a50.057,50.057,0,0,1-3.1,4.237,82.4,82.4,0,0,1-13.123,13c-2.182,1.676-4.364,3.383-6.7,4.87a56.082,56.082,0,0,1-7.81,4.174c-3.731,1.676-7.557,3.162-11.32,4.775a65.626,65.626,0,0,0-9.676,5.091,51.1,51.1,0,0,0-4.775,3.478c-.727-.095-.98-.759-1.36-1.2-3.763-4.364-7.368-8.822-11-13.281-4.553-5.565-8.949-11.257-13.471-16.854-4.585-5.629-9.233-11.226-13.818-16.886-2.4-2.941-4.775-5.945-7.368-8.727-.158-.19-.506-.379-.19-.727a4.758,4.758,0,0,1,1.613.348,18.658,18.658,0,0,0,4.364.822,15.028,15.028,0,0,0,4.712-1.075,38.149,38.149,0,0,0,4.9-1.866,15.726,15.726,0,0,0,2.561-1.455.662.662,0,0,1,.19-.126,3.944,3.944,0,0,0,.379-.253,19.28,19.28,0,0,0,1.961-1.644,3.217,3.217,0,0,0,.822-1.36,2.858,2.858,0,0,1,1.043-1.644,3.012,3.012,0,0,0,1.012-3.162,2.5,2.5,0,0,1,.158-1.518c1.012-2.719,2.308-5.312,3.194-8.063.253-.822.664-1.644,0-2.5-.126-.158,0-.348.063-.538.095-.19.221-.379.316-.538.632-1.2.158-1.961-1.2-1.961a3.306,3.306,0,0,1-.791,0,33.4,33.4,0,0,1-2.53-3.067A59.274,59.274,0,0,1,252.353,91c-1.486-2.466-2.972-4.933-4.4-7.431A1.024,1.024,0,0,0,246.6,83a27.527,27.527,0,0,1-2.783.7c-.253.063-.632.221-.791-.063-.158-.253.126-.506.285-.7.885-.98,1.581-2.15,2.435-3.162.538-.632.538-.822-.126-1.36-.791-.632-1.613-1.233-2.34-1.929a18.762,18.762,0,0,1-3.32-4.079c-.316-.538-.6-.569-1.075-.221a11.04,11.04,0,0,1-2.119,1.265c-.253.095-.538.285-.727.032-.221-.285.095-.506.253-.664A12.953,12.953,0,0,0,238,71.045a3.856,3.856,0,0,0,.7-3.1c-.7-3.6-.98-7.273-1.644-10.909-.158-.854-.348-1.676-.538-2.5-.095-.443-.316-.569-.727-.348-2.593,1.391-5.344,2.4-7.779,4.079a13.374,13.374,0,0,1-1.486.791,2.726,2.726,0,0,0-1.075.822,2.854,2.854,0,0,0-1.518.379c-3.889,1.834-7.842,3.542-11.7,5.5-2.372,1.2-4.68,2.5-7.052,3.731-2.5,1.328-5.091,2.4-7.589,3.731-1.486.759-2.909,1.676-4.427,2.372a2.072,2.072,0,0,1-1.676.19,7.7,7.7,0,0,0-1.929-.917c-1.36-.632-2.593-1.486-3.858-2.213a10.2,10.2,0,0,0-5.629-1.676,1.271,1.271,0,0,1-.885-.253c-.348-.411-.664-.885-1.012-1.328-.538-.759-.474-1.012.285-1.549.506-.348,1.107-.506,1.423-1.075.095-1.328,0-2.625.032-3.953A2.7,2.7,0,0,1,180,61.812c.126-.316.443-.348.727-.443a2.13,2.13,0,0,0,1.423-2.466,1.933,1.933,0,0,0-2.245-1.455c-.221,0-.411.063-.6-.095a2.648,2.648,0,0,1-.443-1.17c-.221-1.17-.727-2.245-.98-3.415a45.043,45.043,0,0,1,.158-4.617c-.032-1.708-.095-1.708-1.708-1.2-2.34.727-4.68,1.423-7.052,2.119a15.283,15.283,0,0,0-7.273,5.123c-.569.664-1.107,1.36-1.644,2.055a1.155,1.155,0,0,0-.253,1.328,33.565,33.565,0,0,0,5.755,8.6,1.927,1.927,0,0,0,.759.569,3.287,3.287,0,0,0,2.277.791,1.081,1.081,0,0,1,.98.443c.949,1.486,2.15,2.783,3.13,4.206-.221.6-.759.885-1.2,1.233a26.473,26.473,0,0,0-5.217,5.249,7.293,7.293,0,0,0-1.328,6.261,22.927,22.927,0,0,0,2.941,7.368,19.92,19.92,0,0,1,2.055,4.4,104.1,104.1,0,0,0,4.585,11.763,16.545,16.545,0,0,0,3.257,4.712,24.391,24.391,0,0,1,2.182,2.941c1.328,1.9,2.308,4.048,4.048,5.629.538.474,1.075.949,1.644,1.391a1.916,1.916,0,0,1,.6.632,12.5,12.5,0,0,1,.506,2.846,2.494,2.494,0,0,1-.158.949,69.14,69.14,0,0,0-2.245,9.075c-.632,3.225-1.391,6.451-2.087,9.676-1.518,6.988-2.466,14.071-3.32,21.155-.7,5.66-1.708,11.289-2.34,16.949-.791,6.8-1.771,13.565-2.783,20.332-.7,4.712-1.3,9.455-1.771,14.2-.253,2.372-.6,4.743-.854,7.146-.126,1.2-.126,2.4-.19,3.573-.095,1.581-.253,3.131-.221,4.712.032,1.486-.316,2.972-.379,4.459-.063,1.581-.253,3.131-.253,4.712.032,1.9-.285,3.795-.158,5.66.158,1.961.095,3.889.126,5.818,0,1.107-.19,2.213-.158,3.352,0,.7.253,1.012.949,1.107a3.141,3.141,0,0,1,1.676.411,1.34,1.34,0,0,1,.19,1.138,17.175,17.175,0,0,1-1.423,4.3A.283.283,0,0,1,171.434,265.389Z" transform="translate(-122.478 -28.059)" fill="#cecece"/>
      <path id="Path_71" data-name="Path 71" d="M325.9,327.509a2.556,2.556,0,0,0,.158-.854A9.454,9.454,0,0,1,329,325.074c3.13-1.36,6.166-2.878,9.391-4.016a3.458,3.458,0,0,1,.538-.158,5.606,5.606,0,0,1,1.771.443c4.743,1.613,9.708,2.119,14.609,2.909a90.96,90.96,0,0,1,13.6,2.783q2.182.712,4.364,1.518c.285.095.632.158.759.538,1.012,1.138,2.024,2.245,3,3.415,1.138,1.36,2.277,2.751,3.383,4.111s2.214,2.688,3.352,4.048c.791.949,1.581,1.929,2.372,2.909,1.075,1.328,2.182,2.688,3.257,4.016,1.423,1.739,2.783,3.478,4.237,5.154,1.518,1.8,3,3.668,4.49,5.5,1.328,1.644,2.625,3.32,3.953,5s2.688,3.352,4.016,5.028c1.486,1.866,2.972,3.731,4.49,5.565,1.075,1.328,2.182,2.625,3.257,3.921,1.17,1.423,2.308,2.846,3.478,4.237,1.107,1.3,2.214,2.593,3.352,3.858.253.285.379.664.727.822.727.885,1.423,1.771,2.213,2.593,1.36,1.455,2.656,2.972,4.016,4.427,1.676,1.771,3.352,3.573,5.028,5.344,2.34,2.466,4.712,4.9,7.052,7.4,2.5,2.656,5.091,5.217,7.684,7.779,1.17,1.17,2.372,2.308,3.542,3.447.632.6.6.6.126,1.3a17.512,17.512,0,0,0-1.581,2.4,2.32,2.32,0,0,1-.664,1.328c-2.245,2.846-4.111,5.945-6.482,8.664-1.992,2.277-3.826,4.712-5.818,6.957-.127.158-.253.348-.506.348-1.486,1.676-3.13,3.194-4.712,4.775l-.348.348c-.221.285-.443.285-.727.032-1.075-1.012-2.182-1.961-3.257-2.941-2.119-1.929-4.142-3.889-6.229-5.85-1.929-1.834-3.795-3.731-5.692-5.6-2.372-2.34-4.68-4.712-7.083-7.02-2.055-1.961-4.206-3.826-6.324-5.755-.98-.885-1.9-1.771-2.878-2.656a1.187,1.187,0,0,1-.664-.443c-2.277-2.245-4.648-4.4-6.862-6.7a26.183,26.183,0,0,0-2.625-2.34,10.05,10.05,0,0,1-.949-1.075c-2.53-2.53-5-5.186-7.652-7.589-3.352-3.036-6.577-6.229-9.708-9.486-3.162-3.289-6.451-6.514-9.644-9.771-.98-1.012-2.087-1.9-3.162-2.814-1.3-1.36-2.814-2.466-4.206-3.7-1.708-1.518-3.225-3.162-4.87-4.743a75.756,75.756,0,0,1-8.158-8.98,100.534,100.534,0,0,1-8.316-12.775,75.326,75.326,0,0,1-5.186-11.51A18.121,18.121,0,0,1,325.9,327.509Z" transform="translate(-261.575 -228.3)" fill="#97b8f4"/>
      <path id="Path_72" data-name="Path 72" d="M374.808,487.9a25.026,25.026,0,0,1,3.225,2.846c2.561,2.561,5.154,5.091,7.652,7.716,1.613,1.708,3.289,3.352,4.9,5.028,2.972,3.067,6.134,5.882,9.233,8.791.285.285.506.6.791.885,1.391,1.423,2.878,2.783,4.206,4.269,1.233,1.391,2.783,2.466,4.047,3.826s2.561,2.656,3.921,3.889c1.075.98,2.087,1.961,3.067,3a5.2,5.2,0,0,0-1.265,1.613c-1.834,2.909-3.668,5.85-5.5,8.791-1.107,1.739-2.182,3.478-3.32,5.154-1.8,2.656-3.7,5.249-5.723,7.747-1.708,2.119-3.415,4.206-5.186,6.229-1.36,1.549-2.783,3.067-4.206,4.585-2.119,2.277-4.332,4.49-6.546,6.641a62.389,62.389,0,0,1-4.9,4.206,57.055,57.055,0,0,1-6.324,4.3,41.954,41.954,0,0,1-5.059,2.53c-2.119.917-4.269,1.739-6.451,2.53-.19.063-.348.095-.379.348-.316.127-.569-.095-.791-.253-2.878-1.9-5.818-3.763-8.759-5.6a1.489,1.489,0,0,1-.474-.411.262.262,0,0,1,.095-.411,10.383,10.383,0,0,1,2.625-.095,1.027,1.027,0,0,0,1.2-.98c.379-2.4.917-4.806,1.265-7.241a37.619,37.619,0,0,1,.727-3.763c2.4-9.3,4.617-18.593,6.482-28.016.759-3.826,1.834-7.557,2.846-11.32.6-2.119,1.012-4.3,1.455-6.451.7-3.194,1.676-6.324,2.4-9.518,1.138-5.091,2.245-10.182,3.352-15.3.379-1.739.917-3.447,1.17-5.217A.717.717,0,0,1,374.808,487.9Z" transform="translate(-278.672 -342.493)" fill="#cfcfcf"/>
      <path id="Path_73" data-name="Path 73" d="M291.816,762.626a21.021,21.021,0,0,0,2.4,1.581c2.53,1.549,4.965,3.194,7.463,4.806a1.537,1.537,0,0,0,.221.095,37.2,37.2,0,0,0,4.142,2.53c4.269,2.34,8.222,5.154,12.269,7.779,1.17.759,2.34,1.549,3.478,2.4a4.979,4.979,0,0,1,1.36,1.455c.379.664.221.949-.538,1.075a7.44,7.44,0,0,1-1.676.063c-5.5-.285-11-.759-16.475-1.518-4.237-.569-8.474-.949-12.712-1.36-5.091-.474-10.182-.854-15.3-1.2-3.225-.221-6.419-.411-9.644-.474a3.515,3.515,0,0,1-1.265-.19,1.538,1.538,0,0,1-1.138-1.613,4.666,4.666,0,0,1,.411-1.613c1.265-3.447,2.34-6.957,3.668-10.4a27.776,27.776,0,0,0,1.486-4.111,10.884,10.884,0,0,0,.158-1.423c.285-.316.632-.221.949-.19,2.972.158,5.882.822,8.854,1.107,3.225.285,6.419.727,9.676.759A3.645,3.645,0,0,1,291.816,762.626Z" transform="translate(-219.522 -528.743)" fill="#ff7600"/>
      <path id="Path_74" data-name="Path 74" d="M674,624.59c1.486-1.8,2.909-3.6,4.427-5.344a106.084,106.084,0,0,0,6.546-8.474c.822-1.17,1.739-2.308,2.5-3.51,1.613-.569,3.13-1.36,4.68-2.024,3.858-1.644,7.779-3.225,11.542-5.123,5-2.53,10.245-4.459,15.4-6.609a10.352,10.352,0,0,1,1.676-.538,3.791,3.791,0,0,1,1.2-.095c.7.063.854.316.569.949a8.081,8.081,0,0,1-.854,1.423c-3.352,4.522-6.925,8.854-10.625,13.06-5.534,6.324-10.751,12.87-15.937,19.479-2.5,3.194-5.028,6.356-7.336,9.676a5.541,5.541,0,0,1-.885,1.043,1.642,1.642,0,0,1-2.308.032,5.648,5.648,0,0,1-.7-.79c-2.719-3.7-5.6-7.3-8.158-11.162A16.322,16.322,0,0,0,674,624.59Z" transform="translate(-499.602 -414.265)" fill="#ff7600"/>
      <path id="Path_75" data-name="Path 75" d="M167.775,444.21a26.961,26.961,0,0,1-1.17,8.664,15.373,15.373,0,0,1-3.257,5.976,4.359,4.359,0,0,1-5.976.063,12.87,12.87,0,0,1-3.194-5.091,24.723,24.723,0,0,1-1.17-5.028,28.008,28.008,0,0,1-.285-5.629,24.8,24.8,0,0,1,2.182-9.644,8.4,8.4,0,0,1,2.435-3.225,4.313,4.313,0,0,1,6.008.221,10.657,10.657,0,0,1,2.783,4.332,23.837,23.837,0,0,1,1.423,5.692A16.213,16.213,0,0,1,167.775,444.21Z" transform="translate(-143.135 -302.344)" fill="#cecece"/>
      <path id="Path_76" data-name="Path 76" d="M297.89,476.543a32.151,32.151,0,0,0-3.478-.253c-2.182-.032-4.332-.316-6.514-.506-3-.253-6.008-.791-9.012-1.17-.885-.126-1.8-.126-2.688-.19a15.044,15.044,0,0,0-2.024-.348c-.854-.126-.885-.158-.885-.98.032-2.5.221-5,.127-7.494-.032-.822-.158-1.644-.127-2.466.095-2.087.032-4.142.158-6.229.095-1.613.095-3.257.316-4.838.379-2.656.316-5.312.474-7.969.158-2.372.285-4.712.569-7.052.316-2.5.6-5,.885-7.526.379-3.731.917-7.431,1.518-11.131.379-2.372.664-4.743,1.012-7.083.253-1.739.506-3.478.759-5.186.19-1.486.348-2.941.538-4.427s.379-3,.6-4.49c.158-1.328.316-2.625.506-3.953.285-1.961.569-3.953.854-5.913l.569-4.174c.19-1.518.379-3.067.6-4.585.19-1.486.348-2.941.538-4.427.221-1.518.474-3.036.7-4.553.443-3.036,1.107-6.071,1.708-9.075.443-2.182.949-4.364,1.423-6.546.443-2.055.854-4.111,1.265-6.166a39.106,39.106,0,0,1,1.644-5.913,5.151,5.151,0,0,1,.411,1.929,40.813,40.813,0,0,0,2.277,6.7c.822,2.024,1.8,3.984,2.814,5.913a89.677,89.677,0,0,0,6.356,10.4c1.17,1.644,2.277,3.32,3.573,4.87.7.822,1.328,1.644,2.024,2.435,2.972,3.289,6.166,6.387,9.36,9.518,1.265,1.233,2.688,2.308,4.048,3.478a4.648,4.648,0,0,1,.949.98,20.892,20.892,0,0,1-.822,4.142c-.664,2.941-1.265,5.85-1.929,8.791-.6,2.751-1.17,5.5-1.834,8.253s-1.423,5.5-2.087,8.253c-.569,2.372-1.012,4.775-1.613,7.146-.759,2.972-1.581,5.945-2.34,8.949-.854,3.447-1.486,6.957-2.214,10.435-.474,2.277-.98,4.522-1.518,6.767-.885,3.6-1.739,7.241-2.656,10.846a53.317,53.317,0,0,0-1.328,5.913c-.348,2.4-.917,4.806-1.233,7.21-.063.379-.221.759-.253,1.17a.613.613,0,0,1-.759.6h-2.308A3.2,3.2,0,0,0,297.89,476.543Z" transform="translate(-225.597 -242.66)" fill="#618ede"/>
      <path id="Path_77" data-name="Path 77" d="M324.573,143.371a2.893,2.893,0,0,0,1.834-.379c2.5-1.36,4.964-2.751,7.557-3.953,1.739-.791,3.478-1.613,5.154-2.53,2.783-1.486,5.534-3.1,8.411-4.4,3.352-1.518,6.672-3.162,10.056-4.648.316-.126.664-.411.949.063a2.887,2.887,0,0,1,.791,1.613c.285.949.569,1.9.885,2.814.285.854.221.949-.569,1.391-3.763,2.15-7.589,4.206-11.384,6.324-5.6,3.131-11.257,6.166-16.791,9.455a5.83,5.83,0,0,0-.791.538,24.133,24.133,0,0,0,3.573-1.3c3.668-1.518,7.4-2.909,11-4.553,4.079-1.866,8.221-3.542,12.269-5.439,1.2-.569,2.4-1.138,3.636-1.613a1.061,1.061,0,0,1,1.486.474,7.721,7.721,0,0,0,2.466,2.688,1.548,1.548,0,0,1,.411.379c.506.538.506.791-.095,1.2-1.233.885-2.466,1.771-3.668,2.688-3.415,2.561-7.02,4.806-10.625,7.083a1.894,1.894,0,0,0-.791.664,7.769,7.769,0,0,0,2.087-.822c3.225-1.455,6.482-2.814,9.613-4.49a49.348,49.348,0,0,1,5.059-2.4c.7-.285.917-.221,1.233.506.6,1.3.98,2.656,1.549,3.921a14.41,14.41,0,0,0,2.277,3.542,10.95,10.95,0,0,1,1.8,2.814,1.7,1.7,0,0,1-.632,2.435c-1.138.885-2.277,1.771-3.32,2.751a6.951,6.951,0,0,1-.569.443,50.3,50.3,0,0,0-7.684,6.134c.632-.19,1.2-.411,1.8-.569a8.011,8.011,0,0,0,1.676-.759c.569-.285,1.107-.632,1.676-.949,2.909-1.613,5.787-3.289,8.664-5,1.834-1.107,1.929-1.075,3.13.7,2.372,3.447,4.427,7.083,6.577,10.688.506.822,1.044,1.613,1.486,2.466.126.221.316.443.253.727a3.377,3.377,0,0,1-1.2,1.012.383.383,0,0,1-.443.063c-.158-.126-.095-.285-.063-.443a3.761,3.761,0,0,0,.285-1.138c.032-.822-.348-1.138-1.138-.917a9.469,9.469,0,0,0-1.2.474,17.174,17.174,0,0,1-4.3,1.423,11.743,11.743,0,0,0-6.229,3.51,12.687,12.687,0,0,1-4.174,3,2.974,2.974,0,0,1-1.138.348,19.413,19.413,0,0,1-4.206-1.929c-3.51-2.055-6.957-4.206-10.53-6.2a104.634,104.634,0,0,0-12.459-5.945,3.517,3.517,0,0,1-.506-.221c-.664-.569-1.391-1.075-2.024-1.676a14.413,14.413,0,0,0-6.83-6.324,50.947,50.947,0,0,1-4.775-3.067,35.705,35.705,0,0,1-5.376-4.617c-1.012-1.36-2.182-2.593-3.257-3.889-.19-.221-.443-.411-.379-.759.285-.443.791-.379,1.2-.538C320.494,145.427,322.423,144.162,324.573,143.371Z" transform="translate(-255.537 -95.895)" fill="#fff"/>
      <path id="Path_78" data-name="Path 78" d="M279.759,174.645c.664.632,1.328,1.3,2.024,1.9a46.375,46.375,0,0,0,7.526,5.344c.19.126.443.19.6.411-.285.253-.6.095-.917.032a12.293,12.293,0,0,0-5.47.095,1.469,1.469,0,0,0-.854.379,2.836,2.836,0,0,0,1.36.032,11.672,11.672,0,0,1,10.024,3.289c.632.632,1.3,1.265,1.9,1.929a1.747,1.747,0,0,0,.822.6,22.74,22.74,0,0,1,1.866,1.613c-.285.285-.6.126-.885.032a9.612,9.612,0,0,0-8.506,1.423,11.992,11.992,0,0,0-5.123,5.913c-1.549,3.731-.506,8.949,2.783,11.573a1.446,1.446,0,0,1,.443.538c-.095.506-.443.285-.664.19a53.169,53.169,0,0,1-9.012-5.407,18.128,18.128,0,0,0-5.723-3.289,8.712,8.712,0,0,0-.854-.253.415.415,0,0,0-.379.032c5.249,4.206,10.561,8.19,17.139,9.9.348-.221-.221-.632.285-.759a6.155,6.155,0,0,1,1.2.443c.221.095.474.19.379.506a1.216,1.216,0,0,1-.822.411,52.667,52.667,0,0,0-7.463,2.719,7.868,7.868,0,0,1-1.676.506c-.474.063-.949.19-1.36-.19a14.427,14.427,0,0,1-4.4-4.459c-1.17-1.9-2.466-3.731-3.7-5.6a2.045,2.045,0,0,0-.253-.285,16.525,16.525,0,0,1-3.921-5.945c-1.518-3.7-3.036-7.4-4.237-11.194a16.153,16.153,0,0,0-1.929-3.921,21.291,21.291,0,0,1-2.972-7.716,7.405,7.405,0,0,1,1.644-6.261,28.273,28.273,0,0,1,5.281-5.186c.348-.253.664-.6,1.012-.885a2.178,2.178,0,0,1,1.3-1.012,8.285,8.285,0,0,1,3-.664,2.82,2.82,0,0,0,.885-.095c.095-.032.158-.032.253-.063a1.007,1.007,0,0,1,.885.221,2.6,2.6,0,0,0,1.107.095,9.687,9.687,0,0,1,4.838,1.423c1.107.664,2.245,1.328,3.352,2.024a8.953,8.953,0,0,0,2.119.917c.316.095.7.19.759.6a1.221,1.221,0,0,1-.506.474c-1.771.664-3.383,1.613-5.059,2.435a6.957,6.957,0,0,1-1.771.632,2.457,2.457,0,0,1-1.17-1.012,25.669,25.669,0,0,0-3.289-3.13A10.643,10.643,0,0,0,273.119,168c1.9,2.213,3.953,4.237,6.04,6.261A1.1,1.1,0,0,0,279.759,174.645Z" transform="translate(-214.36 -119.137)" fill="#0014ff"/>
      <path id="Path_79" data-name="Path 79" d="M415.1,161.316c-.949-1.613-1.9-3.194-2.878-4.806-2.055-3.383-4.016-6.83-6.324-10.087-.221-.285-.379-.253-.664-.158a20.171,20.171,0,0,0-3.162,1.676c-2.783,1.581-5.6,3.194-8.38,4.806a25.212,25.212,0,0,1-4.206,1.644l-.063-.063c-.063-.285.19-.348.316-.506,1.549-1.423,3.162-2.783,4.775-4.111.917-.727,1.992-1.265,2.909-1.992,1.455-1.17,2.814-2.435,4.332-3.51a.961.961,0,0,0,.411-1.043,3.717,3.717,0,0,0-.379-1.138,14.516,14.516,0,0,0-2.024-2.972,14.045,14.045,0,0,1-2.4-4.3c-.379-.949-.727-1.929-1.107-2.909-.221-.569-.253-.569-.822-.316-2.277,1.075-4.522,2.119-6.767,3.289-3.067,1.581-6.293,2.878-9.455,4.3a7.8,7.8,0,0,1-.917.316.208.208,0,0,1-.253-.158.278.278,0,0,1,.032-.221,5.493,5.493,0,0,1,.474-.411c.791-.506,1.549-1.044,2.34-1.518,3.7-2.245,7.21-4.712,10.688-7.3.759-.569,1.549-1.107,2.34-1.676a3.271,3.271,0,0,0-.854-.885,8.689,8.689,0,0,1-2.593-2.878c-.348-.538-.348-.569-.949-.316-1.138.474-2.308.98-3.447,1.486-5.154,2.372-10.34,4.617-15.558,6.862-3.731,1.581-7.494,3.162-11.32,4.585a4.477,4.477,0,0,1-.7.221c-.126.032-.19-.032-.253-.158a.208.208,0,0,1,.095-.285,1.109,1.109,0,0,1,.253-.158c5.123-2.972,10.309-5.913,15.526-8.727,4.585-2.5,9.138-5.059,13.692-7.621.506-.285.538-.285.316-.854-.569-1.549-.885-3.194-1.518-4.712,0-.285.032-.538.348-.664,1.992-.854,3.7-2.213,5.629-3.131,1.581-.727,3.162-1.423,4.648-2.277.285-.158.474-.063.538.221a27.352,27.352,0,0,1,.79,3.889c.095.759.253,1.518.348,2.277.126,1.075.316,2.15.443,3.225.19,1.613.379,3.194.727,4.775a2.805,2.805,0,0,1-.221,2.024,6.334,6.334,0,0,1-1.739,2.245,3.776,3.776,0,0,0-.885.98,4.729,4.729,0,0,0,1.739-.727c.474-.285.949-.6,1.391-.917.316-.221.506-.19.7.158a16.848,16.848,0,0,0,3.542,4.49c.664.6,1.391,1.138,2.087,1.708.19.158.379.285.538.443.538.506.538.6.032,1.17-1.075,1.233-1.929,2.656-3.13,3.984a32.477,32.477,0,0,0,4.016-.98.682.682,0,0,1,.917.316c.759,1.3,1.581,2.53,2.277,3.826.854,1.613,1.9,3.13,2.814,4.743.917,1.581,1.866,3.162,2.846,4.712,1.043,1.613,2.34,3.036,3.478,4.553a14.958,14.958,0,0,1,.98,1.36,6.834,6.834,0,0,1-1.9,1.391,44.472,44.472,0,0,0-3.826,2.53C415.606,161.19,415.416,161.443,415.1,161.316Z" transform="translate(-283.675 -83.104)" fill="#a0a0a0"/>
      <path id="Path_80" data-name="Path 80" d="M226.139,296.079c-.158.316-.316.6-.727.664a15.419,15.419,0,0,0-4.459,1.9c-.791.411-1.613.854-2.4,1.233-.411.19-.506.126-.569-.316v-.095c.095-1.518-.158-3.036-.158-4.553a24.509,24.509,0,0,0-.854-5.66,58.887,58.887,0,0,0-2.846-8.949c-.506-1.265-1.17-2.435-1.708-3.7a30.323,30.323,0,0,0-2.182-3.984,1.017,1.017,0,0,1-.158-.949,86.281,86.281,0,0,0,2.719-11.289c.379-1.9.7-3.795.98-5.723.126-.917.158-1.834.221-2.783.126-2.4.126-4.775.158-7.273.538.379.664,1.012,1.107,1.36a17.336,17.336,0,0,1,2.372,3.478c1.739,3.162,3.6,6.293,5.218,9.518a50.389,50.389,0,0,1,4.364,12.648,42.439,42.439,0,0,1,.632,12.174c-.348,3.826-.949,7.589-1.455,11.415A1.067,1.067,0,0,1,226.139,296.079Z" transform="translate(-182.337 -176.127)" fill="#fff"/>
      <path id="Path_81" data-name="Path 81" d="M567.756,304.131a1.674,1.674,0,0,1-1.486.253c0-.063-.032-.126,0-.158a12.648,12.648,0,0,0,2.087-3.194,27.086,27.086,0,0,0,2.846-6.925,33.785,33.785,0,0,0,.569-3.51c.221-1.8.38-3.636.6-5.439a19.449,19.449,0,0,0,.032-3.036,1.26,1.26,0,0,1,.727-1.265c2.15-1.328,4.206-2.783,6.261-4.237,1.771-1.233,3.542-2.435,5.344-3.636,1.834-1.233,3.7-2.4,5.439-3.763a1.028,1.028,0,0,1,.538-.221,3.667,3.667,0,0,1-.095,2.024c-.474,3.13-1.3,6.229-1.961,9.328a34.836,34.836,0,0,1-1.138,4.047,2.28,2.28,0,0,1-.664,1.043c.032.253-.126.379-.285.538a20.206,20.206,0,0,1-7.969,4.806,19.33,19.33,0,0,1-5,.917c-.759.032-.949.221-.917,1.075a19.938,19.938,0,0,1-.506,5.312c-.474,1.866-.917,3.795-2.561,5.091A3.415,3.415,0,0,1,567.756,304.131Z" transform="translate(-425.928 -192.812)" fill="#fff"/>
      <path id="Path_82" data-name="Path 82" d="M247.263,105.887c-.253.032-.379-.158-.538-.285a26.754,26.754,0,0,1-4.174-5.439c-.664-1.107-1.233-2.308-1.9-3.415a1.138,1.138,0,0,1,.063-1.391,27.186,27.186,0,0,1,4.743-5.154,12.324,12.324,0,0,1,3.731-2.055c2.182-.759,4.4-1.423,6.64-2.055.7-.19,1.36-.474,2.055-.7.632-.221.885-.063,1.012.6a4.239,4.239,0,0,1,.032.632,33.61,33.61,0,0,1-.19,3.984c-.032.379.063.727.032,1.107-.126.632-.632.727-1.138.791a30.144,30.144,0,0,0-3.763.632,6.674,6.674,0,0,0-4.364,3.668c-.7,1.423-.285,2.751.221,4.079a.4.4,0,0,0,.506.253,15.83,15.83,0,0,0,1.581-.569.66.66,0,0,0,.379-.664c.095-1.866,2.909-3.225,4.617-1.8a1.151,1.151,0,0,0,1.929-.474c.285-.632.6-1.2,1.36-1.3.095-.032.221-.032.316-.063a2.09,2.09,0,0,1,2.688,1.549,2.355,2.355,0,0,1-1.771,2.783,2.393,2.393,0,0,1-.474.032c-.791.253-1.3-.19-1.771-.7-.19-.19-.253-.6-.632-.474a.829.829,0,0,0-.538.822,2.941,2.941,0,0,1-2.119,2.625,2.618,2.618,0,0,1-2.719-.664,1,1,0,0,0-1.328-.253,2.4,2.4,0,0,1-.664.253c-.506.126-.822.348-.632.949a.4.4,0,0,1-.126.506c-.221.158-.411,0-.569-.126a2.03,2.03,0,0,0-1.644-.443c-.822.126-1.107.632-.949,1.518C247.2,105.034,247.611,105.445,247.263,105.887Z" transform="translate(-203.144 -67.202)"/>
      <path id="Path_83" data-name="Path 83" d="M349.953,92.482c-.221-.348.158-.411.285-.538.98-.854,1.961-1.708,3-2.5a26.459,26.459,0,0,0,4.174-3.795,25.825,25.825,0,0,0,4.142-5.913c.538-1.107,1.17-2.15,1.708-3.257a43.43,43.43,0,0,0,2.846-6.735,3.708,3.708,0,0,1,.285-.759c.253-.569.379-.632.98-.506.98.221,1.992.253,2.972.443,1.549.285,3.13.506,4.712.727a30.929,30.929,0,0,1,4.079.791c-.19.538-.854.569-1.075,1.012a3.922,3.922,0,0,1-.885.885c-3.383,2.783-6.577,5.755-9.866,8.6a107.8,107.8,0,0,1-11.447,8.917,20.1,20.1,0,0,1-5.376,2.593C350.332,92.482,350.143,92.609,349.953,92.482Z" transform="translate(-277.976 -55.662)" fill="#fff"/>
      <path id="Path_84" data-name="Path 84" d="M481.6,266.04a39.416,39.416,0,0,1,4.49-2.972,11.225,11.225,0,0,1,1.961-1.2,2.41,2.41,0,0,1,1.929.095,1.055,1.055,0,0,1,.569,1.265,3.534,3.534,0,0,1-.632,1.3c-.126.19-.253.316,0,.538a1.077,1.077,0,0,1,.285,1.17,21.636,21.636,0,0,1-1.518,4.364c-.664,1.581-1.3,3.194-1.961,4.775a2.987,2.987,0,0,0-.221,1.961,3.225,3.225,0,0,1-1.36,3.352,1.413,1.413,0,0,0-.6.885,4.453,4.453,0,0,1-1.8,2.656c-.411.348-.854.6-1.3.917a.6.6,0,0,0-.316.158h0a37.608,37.608,0,0,1-10.909,4.237c-.443.095-.917.253-1.138-.348.095-.379.411-.379.7-.443a35.561,35.561,0,0,0,9.613-3.415c2.182-1.17,3.162-1.771,4.174-3.162a25.391,25.391,0,0,1-5.565,3.13,8.95,8.95,0,0,1-.98.348c-.253.063-.569.19-.7-.126-.126-.285.126-.443.285-.6a13.7,13.7,0,0,1,2.972-2.024,39,39,0,0,0,4.9-3.289,2.087,2.087,0,0,0,.98-2.024,63.523,63.523,0,0,1-7.684,4.016c-.632.316-1.2.822-1.8,1.2-.221.158-.506.443-.791.19s-.126-.6.032-.885a7,7,0,0,1,2.751-2.593c1.549-.791,3.162-1.423,4.712-2.182a5.646,5.646,0,0,0,3.194-3.447c.759-2.34,2.024-4.459,2.878-6.767a2.16,2.16,0,0,0,.221-.917c-.885,1.075-1.929,1.834-2.688,2.909a50.426,50.426,0,0,1-4.048,4.965,12.683,12.683,0,0,1-6.419,3.7,37.414,37.414,0,0,0-4.047,1.265c-.095.032-.19.063-.316.095-.221.032-.443.127-.569-.095s.063-.411.221-.538a8.174,8.174,0,0,1,2.688-1.549c.759-.285,1.486-.569,2.245-.822a13.852,13.852,0,0,0,5.723-4.048c1.739-1.9,3.289-3.984,5.154-5.787a22.729,22.729,0,0,0,2.087-2.53c.126-.19.348-.411.158-.632s-.474-.063-.664.032c-1.075.6-2.087,1.3-3.1,1.961-3.067,1.992-6.229,3.826-9.139,6.04a12.888,12.888,0,0,1-4.553,2.055c-.285.063-.664.221-.79-.095-.158-.379.253-.538.506-.7,1.107-.632,2.277-1.138,3.352-1.866a21.249,21.249,0,0,0,3.921-3.6,4.669,4.669,0,0,0,.664-1.012c.095-.158.221-.348.063-.506s-.348-.032-.506.063a18.281,18.281,0,0,1-5.692,2.024,9.632,9.632,0,0,0-4.427,2.561,17.219,17.219,0,0,1-5.629,3.984,13.178,13.178,0,0,1-6.988.632,1.205,1.205,0,0,1-.316-.095c-.19-.095-.443-.158-.379-.443.032-.221.253-.253.443-.285a4.238,4.238,0,0,1,.632-.032,17.147,17.147,0,0,0,4.585-.506c.316-.095.632.032.949-.063a12.433,12.433,0,0,0,5.123-3.289c.632-.6,1.233-1.17,1.9-1.708a9.916,9.916,0,0,1,3.636-1.739c.348-.095.727-.221,1.075-.285a21.349,21.349,0,0,0,4.585-1.613,2.78,2.78,0,0,1,1.138-.316.8.8,0,0,1,.917.79,2.12,2.12,0,0,1-.158,1.17,1.94,1.94,0,0,0-.19.79C480.649,266.736,481.123,266.388,481.6,266.04Z" transform="translate(-350.173 -187.828)" fill="#d29f6a"/>
      <path id="Path_85" data-name="Path 85" d="M261.08,135.674a.83.83,0,0,0-.158-.6,3.039,3.039,0,0,1-.253-.917,1.18,1.18,0,0,1,1.075-1.455,1.913,1.913,0,0,1,1.9.538c.095.095.19.221.348.126.19-.095.095-.253.063-.411-.221-.854-.221-.854.632-1.138a6.877,6.877,0,0,0,1.328-.538c.285-.158.443-.126.664.158a2.623,2.623,0,0,0,4.775-1.455,1.038,1.038,0,0,1,.474-.854c.506-.379.6-.379.917.19a2.113,2.113,0,0,0,1.834,1.075v4.648c0,.253.095.538-.158.727a13.243,13.243,0,0,0-2.5.379,24.306,24.306,0,0,1-5.249-.063c-.664-.032-1.3-.063-2.15-.063a17.263,17.263,0,0,0,3.383,1.486c1.36.411,2.688.791,4.016,1.265.285.095.7.095.759.569-.063,0-.126.032-.221.032-.221.063-.474,0-.7.063a21.508,21.508,0,0,0-2.4.474,8.188,8.188,0,0,0-2.024,1.043,19.768,19.768,0,0,1-2.4-2.972c-.158-.253-.348-.474-.506-.727a1.321,1.321,0,0,0-1.486-.791A2.331,2.331,0,0,1,261.08,135.674Z" transform="translate(-216.962 -96.988)" fill="#eab883"/>
      <path id="Path_86" data-name="Path 86" d="M571,339.688a8.374,8.374,0,0,0,2.119-1.518,5.188,5.188,0,0,0,1.17-1.866,20.681,20.681,0,0,0,1.36-7.716c0-1.486.032-1.486,1.486-1.549a19.537,19.537,0,0,0,7.178-1.929A21.089,21.089,0,0,0,590.036,321c.158,0,.253.095.158.253a6.676,6.676,0,0,1-.822,1.265c-.7.664-1.2,1.486-1.834,2.213-.506.569-.949,1.2-1.486,1.739-1.549,1.518-2.909,3.225-4.522,4.712-2.087,1.9-4.016,3.953-6.04,5.882a13.639,13.639,0,0,1-3.763,2.625C571.506,339.783,571.253,340,571,339.688Z" transform="translate(-429.172 -228.369)" fill="#a0a0a0"/>
      <path id="Path_87" data-name="Path 87" d="M390.313,286.075c.19.379.506.348.822.285a23.822,23.822,0,0,0,3.352-.917c1.3-.506,2.688-.822,3.953-1.391.98-.443,1.929-.917,2.846-1.391a4,4,0,0,1,1.012-.411,8.441,8.441,0,0,1-2.846,1.708,44.5,44.5,0,0,1-7.937,2.751,7.865,7.865,0,0,1-4.016-.095c-1.265-.348-2.5-.664-3.763-1.012a61.157,61.157,0,0,0-12.68-3.636c-1.9-.316-3.795-.727-5.723-.949-2.466-.285-4.87-.727-7.3-1.075a40.413,40.413,0,0,1-7.431-1.8c-.664-.221-1.328-.379-1.992-.569a3.347,3.347,0,0,1-1.992-.791c-.474-.379-1.075-.443-1.581-.791-.285-.095-.6-.126-.759-.443a10.148,10.148,0,0,1-3.194-4.016,11.361,11.361,0,0,1-.854-3.953,8.991,8.991,0,0,1,.632-4.206,11.76,11.76,0,0,1,5.186-6.071c.19.316-.095.506-.285.664a12.028,12.028,0,0,0-3.953,8.633,9.309,9.309,0,0,0,5.565,8.98,75.309,75.309,0,0,0,16.348,4.206,116.614,116.614,0,0,1,18.815,4.3,35.028,35.028,0,0,0,7.336,1.8A.457.457,0,0,1,390.313,286.075Z" transform="translate(-271.347 -184.811)" fill="#d19e6a"/>
      <path id="Path_88" data-name="Path 88" d="M278.38,110.317a2.609,2.609,0,0,0-1.265,1.676c-.032.158-.095.316-.285.348a3.329,3.329,0,0,0-1.075.632c-.221-.032-.285-.253-.411-.379a2.619,2.619,0,0,0-2.909-.759,2.412,2.412,0,0,0-1.8,2.372c0,.221,0,.411-.253.506-.791.253-1.549.538-2.4.822-.348-1.36-1.138-2.593-.632-4.016a6.224,6.224,0,0,1,3-3.858,11.212,11.212,0,0,1,4.49-1.233c.443-.032.885-.095,1.36-.158a1.122,1.122,0,0,0,.917-.569c.443,1.3.854,2.625,1.17,3.953A2.585,2.585,0,0,0,278.38,110.317Z" transform="translate(-221.423 -81.149)" fill="#eab883"/>
      <path id="Path_89" data-name="Path 89" d="M237.546,299.056c.126-1.043.285-2.119.379-3.162.158-2.024.569-4.048.822-6.071a51.2,51.2,0,0,0,.474-6.609,45.055,45.055,0,0,0-.474-6.2,50.091,50.091,0,0,0-6.135-17.676c-1.739-3.194-3.447-6.419-5.407-9.518-.158-.285-.348-.538-.506-.822.285-.158.348.126.443.253,1.17,1.581,2.277,3.194,3.32,4.87.98,1.581,1.929,3.194,2.878,4.775a39.7,39.7,0,0,1,3.036,6.419,58.485,58.485,0,0,1,2.53,7.874c.474,2.024.822,4.048,1.107,6.1a52.78,52.78,0,0,1,.443,8.348,50.632,50.632,0,0,1-.443,5.376c-.158,1.36-.411,2.719-.664,4.079-.095.443-.253.854-.348,1.3-.158.632-.664.759-1.2.885C237.609,299.34,237.578,299.15,237.546,299.056Z" transform="translate(-193.744 -179.103)" fill="#a1a1a1"/>
      <path id="Path_90" data-name="Path 90" d="M350.1,99.028a28.145,28.145,0,0,0,7.937-4.206,111.549,111.549,0,0,0,9.328-7.526c1.929-1.708,3.921-3.383,5.882-5.059,1.012-.854,1.9-1.9,2.972-2.688.7-.506,1.3-1.075,2.055-1.549a1.206,1.206,0,0,1-.095.316c-1.3,1.581-2.53,3.194-3.984,4.68-.854.854-1.834,1.549-2.719,2.34-.6.538-1.233,1.107-1.834,1.644-1.739,1.581-3.447,3.162-5.312,4.585a50.586,50.586,0,0,1-6.324,4.3c-1.17.632-2.308,1.328-3.478,1.961a15.36,15.36,0,0,1-3.889,1.36C350.448,99.186,350.258,99.218,350.1,99.028Z" transform="translate(-278.123 -62.208)" fill="#a1a1a1"/>
      <path id="Path_91" data-name="Path 91" d="M336.189,318.9a7.285,7.285,0,0,1,1.992.791c-.126.063-.221.126-.348.19-2.751,1.012-5.407,2.308-8.127,3.447-1.138.474-2.182,1.107-3.32,1.581a3.1,3.1,0,0,1-1.012.411c-.158-.949-.316-1.929-.474-2.878a7.238,7.238,0,0,0,4.048-.949,35.266,35.266,0,0,1,5.882-2.119C335.272,319.248,335.714,319.026,336.189,318.9Z" transform="translate(-260.892 -226.933)" fill="#2d2d2e"/>
      <path id="Path_92" data-name="Path 92" d="M280.4,153.885a12.749,12.749,0,0,0-2.593-.949,29.67,29.67,0,0,1-5.091-1.834,1.958,1.958,0,0,1-.917-.727,21.76,21.76,0,0,1,2.5.032c.411.032.854.095,1.265.095a12.751,12.751,0,0,1,1.9.126,7.529,7.529,0,0,0,2.372-.19,8.02,8.02,0,0,0,1.929-.379c.221-.063.348.032.379.253a8.84,8.84,0,0,1-1.455.949c-.759.506-.759.538-.253,1.265a6.963,6.963,0,0,1,.949,1.36A3.386,3.386,0,0,1,280.4,153.885Z" transform="translate(-224.582 -111.468)" fill="#c28c54"/>
      <path id="Path_93" data-name="Path 93" d="M536.7,335.6c.063-.126.095-.348.316-.158A.321.321,0,0,1,536.7,335.6Z" transform="translate(-405.718 -238.192)" fill="#d19e6a"/>
      <path id="Path_94" data-name="Path 94" d="M393.434,281.839a15.8,15.8,0,0,1-4.522-.791c-3.194-.822-6.293-2.055-9.55-2.814-2.719-.632-5.47-1.265-8.221-1.708-1.3-.221-2.593-.569-3.889-.727-1.233-.158-2.435-.411-3.668-.569-1.044-.126-2.087-.411-3.1-.632a38.506,38.506,0,0,1-5.692-1.455c-1.771-.664-3.51-1.328-5.249-2.055a7.2,7.2,0,0,1-3.415-3.225,7.407,7.407,0,0,1-1.138-2.783,14.635,14.635,0,0,1-.19-3.542,13.845,13.845,0,0,1,1.518-4.9,8.673,8.673,0,0,1,2.593-3.162.629.629,0,0,0,.253-.379,9.628,9.628,0,0,1,8.443-1.644,5,5,0,0,0,1.138.285,84.743,84.743,0,0,1,11.162,5.123q5.787,3.131,11.384,6.64a34.014,34.014,0,0,0,5.154,2.561,13.174,13.174,0,0,1-2.941.632c-1.075.126-2.182.126-3.257.158a.25.25,0,0,0-.285.19.809.809,0,0,0,.6.253,12.545,12.545,0,0,0,9.138-1.771,17.988,17.988,0,0,0,1.929-1.549c.98-.854,1.929-1.739,2.909-2.593a5.245,5.245,0,0,1,1.929-.949c.949-.316,1.929-.6,2.909-.822a13.076,13.076,0,0,0,3.889-1.581c.221-.126.506-.443.791-.158.316.285.032.632-.095.885a7.686,7.686,0,0,1-1.708,2.182,19.97,19.97,0,0,1-3.7,3c-.727.411-1.455.759-2.182,1.138a6.448,6.448,0,0,0-1.138.759,2.851,2.851,0,0,0,1.36-.221,13.824,13.824,0,0,0,4.775-2.5c1.3-1.107,2.846-1.834,4.237-2.814,2.024-1.391,4.174-2.656,6.229-3.984a3.99,3.99,0,0,1,1.391-.759c.221-.063.506-.126.664.095s0,.474-.095.664a16.557,16.557,0,0,1-1.328,1.708,17.646,17.646,0,0,1-1.929,2.119,37.991,37.991,0,0,0-2.53,2.972c-.063.063-.095.126-.158.19-.917.822-1.644,1.8-2.5,2.688a12.378,12.378,0,0,1-5.312,3.257,20.7,20.7,0,0,0-3.257,1.328,4.776,4.776,0,0,0-1.486,1.17.312.312,0,0,0,.316.063c1.8-.759,3.7-1.138,5.534-1.739a11.977,11.977,0,0,0,5.123-3.13c1.044-1.138,2.024-2.308,2.972-3.51a26.91,26.91,0,0,1,3.13-3.7,1.93,1.93,0,0,0,.569-.664.553.553,0,0,1,.569-.348.882.882,0,0,1-.032.7,18.813,18.813,0,0,1-.7,1.866c-.949,2.024-1.9,4.048-2.656,6.135a4.6,4.6,0,0,1-2.372,2.561c-1.36.664-2.719,1.36-4.111,1.929a7.816,7.816,0,0,0-3.858,2.972c-.158.253-.348.474-.221.854a.694.694,0,0,0,.538-.221,18.45,18.45,0,0,1,3.984-2.308,39.708,39.708,0,0,0,4.743-2.466,13.95,13.95,0,0,0,1.233-.885c-.063.917-.032,1.644-.632,2.245a37.528,37.528,0,0,1-6.261,4.206,17.185,17.185,0,0,0-2.308,1.676c-.095.063-.19.158-.127.253.063.158.221.126.348.095.632-.253,1.3-.443,1.929-.727a23.68,23.68,0,0,0,4.648-2.751,1.731,1.731,0,0,1,.632-.348.756.756,0,0,1-.253.727,8.372,8.372,0,0,1-1.644,1.518,39.108,39.108,0,0,1-3.51,2.055,57.245,57.245,0,0,1-6.735,2.466C395.268,281.491,394.319,281.555,393.434,281.839Z" transform="translate(-274.468 -180.575)" fill="#eab883"/>
      <path id="Path_95" data-name="Path 95" d="M351.272,233.181c-.063.126-.158.221-.316.126a2.631,2.631,0,0,1-.569-.411,20.5,20.5,0,0,0-2.435-2.53,10.216,10.216,0,0,0-5.249-2.688,11.243,11.243,0,0,0-4.364-.063,2.818,2.818,0,0,1-1.739-.221,2.679,2.679,0,0,1,1.423-.664,12.11,12.11,0,0,1,6.2.095c.063.032.095,0,.158,0a14.643,14.643,0,0,1,6.514,5.629A2.016,2.016,0,0,1,351.272,233.181Z" transform="translate(-268.892 -163.664)" fill="#020fbf"/>
      <path id="Path_96" data-name="Path 96" d="M310.849,183.967c-.158.095-.316.19-.506,0-.158-.158-.348-.316-.506-.506-1.36-1.36-2.751-2.656-4.016-4.048a26.965,26.965,0,0,1-3.415-4.174.316.316,0,0,1-.063-.348.794.794,0,0,1,.664.316c.822.791,1.739,1.486,2.5,2.34.569.632,1.107,1.265,1.676,1.929,1.044,1.233,2.119,2.5,3.162,3.731A2.65,2.65,0,0,1,310.849,183.967Z" transform="translate(-245.45 -128.458)" fill="#0310bf"/>
      <path id="Path_97" data-name="Path 97" d="M316.312,295.134a1.85,1.85,0,0,1,.759.443c-.126.158.032.221.126.316.126.158.285.285.095.474-.127.158-.316.126-.506.095a25.594,25.594,0,0,1-4.206-1.486A41.669,41.669,0,0,1,306.1,291.4c-1.423-1.012-2.814-2.087-4.206-3.13a12.793,12.793,0,0,1-2.308-1.834c-.095-.126-.253-.19-.285-.443a.962.962,0,0,1,.664.032,15.923,15.923,0,0,1,6.071,3.036,43.025,43.025,0,0,0,8,5.028,11.864,11.864,0,0,1,1.391.759C315.711,295.039,315.964,295.355,316.312,295.134Z" transform="translate(-243.387 -204.4)" fill="#020fbf"/>
      <path id="Path_98" data-name="Path 98" d="M296.1,162.178a.9.9,0,0,1,.7-.063A.884.884,0,0,1,296.1,162.178Z" transform="translate(-241.199 -119.698)" fill="#cecece"/>
      <path id="Path_99" data-name="Path 99" d="M227.177,296.8a2.814,2.814,0,0,1,.095,2.308,31.668,31.668,0,0,1-1.107,4.459,16.275,16.275,0,0,1-1.8,3.352,1.473,1.473,0,0,1-.443.443c-.285.19-.6.379-.949.126a.74.74,0,0,1-.221-.917,5.7,5.7,0,0,1,.253-.664c.98-2.372,2.087-4.712,2.941-7.115.19-.538.506-1.044.759-1.581A.7.7,0,0,1,227.177,296.8Z" transform="translate(-190.995 -211.821)" fill="#e1e1e1"/>
      <path id="Path_100" data-name="Path 100" d="M236.925,318.323a5.835,5.835,0,0,1-.7,2.561,18.362,18.362,0,0,1-2.245,4.269,6.1,6.1,0,0,1-.854.949.975.975,0,0,1-1.17.158.838.838,0,0,1-.253-1.075,21.527,21.527,0,0,1,1.233-2.593c.759-1.328,1.581-2.625,2.4-3.921a3.031,3.031,0,0,1,.854-1.043c.443-.316.7-.19.727.316A1.431,1.431,0,0,1,236.925,318.323Z" transform="translate(-197.107 -225.944)" fill="#e1e1e1"/>
      <path id="Path_101" data-name="Path 101" d="M246.157,333.248a16.278,16.278,0,0,1-.664,2.245c-.538,1.107-1.107,2.182-1.644,3.289a5.48,5.48,0,0,1-.7.98.819.819,0,0,1-1.012.253c-.316-.19-.379-.443-.221-.98a24.194,24.194,0,0,1,1.581-3.13,17.312,17.312,0,0,1,2.119-2.878c.095-.126.19-.285.379-.19C246.189,332.9,246.157,333.059,246.157,333.248Z" transform="translate(-204.094 -236.443)" fill="#e1e1e1"/>
      <path id="Path_102" data-name="Path 102" d="M592.937,301.154a1.788,1.788,0,0,1-.411,0c-.348-.063-.7-.158-.791-.569a.854.854,0,0,1,.443-1.012c.664-.379,1.36-.759,2.024-1.107a39.691,39.691,0,0,1,4.553-2.119c1.233-.443,2.53-.822,3.795-1.233a1.542,1.542,0,0,1,.538-.032c.253,0,.6-.063.7.253.095.285-.127.506-.316.7a8.681,8.681,0,0,1-1.138,1.012,22.7,22.7,0,0,1-8.664,4.047l-.379.095C593.19,301.186,593.063,301.154,592.937,301.154Z" transform="translate(-443.33 -210.641)" fill="#e1e1e1"/>
      <path id="Path_103" data-name="Path 103" d="M605.116,311.1c-.063.6-.474.854-.822,1.138a20.206,20.206,0,0,1-4.9,2.593,11.091,11.091,0,0,1-3.383.854,2.127,2.127,0,0,1-.632-.032c-.285-.063-.538-.063-.6-.411-.063-.316.158-.506.348-.664a1.271,1.271,0,0,1,.506-.253c2.15-.759,4.269-1.644,6.387-2.435A19.327,19.327,0,0,1,605.116,311.1Z" transform="translate(-445.422 -221.599)" fill="#e1e1e1"/>
      <path id="Path_104" data-name="Path 104" d="M284.25,128.69a1.985,1.985,0,0,1-2.308,1.834,1.752,1.752,0,0,1-1.676-1.992,2.033,2.033,0,0,1,2.245-1.676A1.875,1.875,0,0,1,284.25,128.69Z" transform="translate(-230.36 -95.602)" fill="#e9b881"/>
      <path id="Path_105" data-name="Path 105" d="M300.5,123.271a1.729,1.729,0,0,1,1.676-1.771,1.472,1.472,0,0,1,1.486,1.518,1.916,1.916,0,0,1-1.739,1.866A1.571,1.571,0,0,1,300.5,123.271Z" transform="translate(-244.207 -91.953)" fill="#d1c9c0"/>
      <ellipse id="Ellipse_5" data-name="Ellipse 5" cx="6.514" cy="13.502" rx="6.514" ry="13.502" transform="translate(145.684 25.194) rotate(-73.136)" fill="#cecece"/>
    </g>
  </g>
</svg>
