<svg xmlns="http://www.w3.org/2000/svg" xmlns:xlink="http://www.w3.org/1999/xlink" width="150" height="19.533" viewBox="0 0 150 19.533">
  <defs>
    <clipPath id="clip-path">
      <rect id="Rectangle_625" data-name="Rectangle 625" width="51.347" height="16.24" fill="#fff"/>
    </clipPath>
  </defs>
  <g id="splash_logo" transform="translate(-61.928 -167.001)">
    <g id="onelocbusiness_logo" transform="translate(61.928 170.294)" clip-path="url(#clip-path)">
      <path id="Path_42" data-name="Path 42" d="M40.1,9.529H37.784v-5a2.574,2.574,0,0,0-.379-1.563,1.254,1.254,0,0,0-1.052-.494,2.108,2.108,0,0,0-.94.236,2.943,2.943,0,0,0-.853.648,2.522,2.522,0,0,0-.552.952V9.529H31.7V1.94L33.783.387v1.86a3.36,3.36,0,0,1,.879-.98A3.975,3.975,0,0,1,35.9.653,5.036,5.036,0,0,1,37.371.439a2.867,2.867,0,0,1,1.388.3,2.072,2.072,0,0,1,.828.8,3.549,3.549,0,0,1,.4,1.134A7.311,7.311,0,0,1,40.1,3.953Z" transform="translate(-21.852 -0.267)" fill="#fff"/>
      <path id="Path_43" data-name="Path 43" d="M64.712,9.263A5.084,5.084,0,0,1,62.745,8.9a4.469,4.469,0,0,1-1.5-1.007,4.577,4.577,0,0,1-1.293-3.215,4.8,4.8,0,0,1,.577-2.338A4.415,4.415,0,0,1,62.185.64,4.9,4.9,0,0,1,64.729,0a4.785,4.785,0,0,1,2.535.641,4.351,4.351,0,0,1,1.613,1.691A4.74,4.74,0,0,1,69.438,4.6c0,.137-.007.276-.018.419s-.023.259-.034.35H62.4a2.563,2.563,0,0,0,.4,1.179,2.194,2.194,0,0,0,.862.767,2.508,2.508,0,0,0,1.13.261,2.658,2.658,0,0,0,1.3-.336,1.776,1.776,0,0,0,.837-.889L68.92,6.9a3.769,3.769,0,0,1-.94,1.225,4.511,4.511,0,0,1-1.44.836,5.309,5.309,0,0,1-1.828.3M62.348,3.9h4.726a2.638,2.638,0,0,0-.388-1.172,2.235,2.235,0,0,0-.836-.775,2.4,2.4,0,0,0-1.155-.279,2.314,2.314,0,0,0-1.13.279,2.253,2.253,0,0,0-.828.775A2.63,2.63,0,0,0,62.348,3.9" transform="translate(-41.332 0)" fill="#fff"/>
      <path id="Path_44" data-name="Path 44" d="M91.7,1.749,94.015.387v6.1a1.243,1.243,0,0,0,.207.84.751.751,0,0,0,.569.216,2.468,2.468,0,0,0,.569-.07,2.679,2.679,0,0,0,.517-.173l.31,1.759a4.457,4.457,0,0,1-1.086.345,5.955,5.955,0,0,1-1.121.121A2.31,2.31,0,0,1,92.3,8.95,2.2,2.2,0,0,1,91.7,7.3Z" transform="translate(-63.223 -0.267)" fill="#fff"/>
      <path id="Path_45" data-name="Path 45" d="M109.829,9.263a5.121,5.121,0,0,1-1.984-.367,4.294,4.294,0,0,1-1.492-1.015,4.571,4.571,0,0,1-.94-1.484,4.919,4.919,0,0,1,0-3.531,4.575,4.575,0,0,1,.94-1.485A4.315,4.315,0,0,1,107.844.367,5.116,5.116,0,0,1,109.829,0,5.045,5.045,0,0,1,111.8.367a4.386,4.386,0,0,1,2.432,2.5,4.931,4.931,0,0,1,.319,1.773,4.885,4.885,0,0,1-.319,1.757,4.467,4.467,0,0,1-.931,1.484A4.3,4.3,0,0,1,111.812,8.9a5.121,5.121,0,0,1-1.983.367M107.466,4.64a2.958,2.958,0,0,0,.31,1.379,2.367,2.367,0,0,0,.845.939,2.207,2.207,0,0,0,1.208.338,2.144,2.144,0,0,0,1.19-.347A2.512,2.512,0,0,0,111.872,6a2.892,2.892,0,0,0,.319-1.379,2.909,2.909,0,0,0-.319-1.371,2.432,2.432,0,0,0-.854-.948,2.269,2.269,0,0,0-2.4.008,2.443,2.443,0,0,0-.845.948,2.959,2.959,0,0,0-.31,1.379" transform="translate(-72.448 0)" fill="#fff"/>
      <path id="Path_46" data-name="Path 46" d="M141.5,9.263A5.115,5.115,0,0,1,139.52,8.9a4.325,4.325,0,0,1-1.5-1.023,4.728,4.728,0,0,1-.957-1.493,4.667,4.667,0,0,1-.336-1.757,4.708,4.708,0,0,1,.577-2.311,4.386,4.386,0,0,1,1.647-1.68A4.9,4.9,0,0,1,141.487,0,4.766,4.766,0,0,1,144,.639a4.063,4.063,0,0,1,1.57,1.673l-2.26.69a2.033,2.033,0,0,0-.776-.768,2.171,2.171,0,0,0-1.069-.267,2.266,2.266,0,0,0-2.053,1.26,3,3,0,0,0-.31,1.4A2.892,2.892,0,0,0,139.425,6a2.5,2.5,0,0,0,.854.948,2.141,2.141,0,0,0,1.19.347,2.223,2.223,0,0,0,.785-.138,2.292,2.292,0,0,0,.664-.379,1.508,1.508,0,0,0,.431-.553l2.26.69a3.707,3.707,0,0,1-.905,1.208,4.372,4.372,0,0,1-1.4.836,5.093,5.093,0,0,1-1.8.3" transform="translate(-94.262 0)" fill="#fff"/>
      <path id="Path_47" data-name="Path 47" d="M9.151,2.866A4.387,4.387,0,0,0,6.718.367,5.049,5.049,0,0,0,4.744,0,5.123,5.123,0,0,0,2.759.367,4.318,4.318,0,0,0,1.267,1.382a4.577,4.577,0,0,0-.94,1.484,4.92,4.92,0,0,0,0,3.531,4.575,4.575,0,0,0,.94,1.484,4.206,4.206,0,0,0,1.055.78l2.187,1.77a.43.43,0,0,0,.546,0L7.193,8.645a4.2,4.2,0,0,0,1.026-.764A4.471,4.471,0,0,0,9.151,6.4,4.892,4.892,0,0,0,9.469,4.64a4.937,4.937,0,0,0-.319-1.773m-6.46.394a2.445,2.445,0,0,1,.845-.948,2.175,2.175,0,0,1,1.208-.347,2.183,2.183,0,0,1,1.19.338,2.436,2.436,0,0,1,.854.948,2.909,2.909,0,0,1,.319,1.371A2.894,2.894,0,0,1,6.787,6a2.511,2.511,0,0,1-.854.947,2.141,2.141,0,0,1-1.19.347,2.207,2.207,0,0,1-1.208-.338,2.371,2.371,0,0,1-.845-.939,2.959,2.959,0,0,1-.31-1.379,2.96,2.96,0,0,1,.31-1.379" transform="translate(0 0)" fill="#fff"/>
    </g>
    <g id="Group_666" data-name="Group 666" transform="translate(117.921 167.001)">
      <path id="Path_59" data-name="Path 59" d="M32.932,46.719v-7.98H31.7v-.922h1.236v-.239a5.026,5.026,0,0,1,.317-1.88,2.644,2.644,0,0,1,.91-1.2,2.363,2.363,0,0,1,1.4-.419,3.492,3.492,0,0,1,1.031.153,3,3,0,0,1,.858.41l-.359.837a1.575,1.575,0,0,0-.585-.291,2.629,2.629,0,0,0-.72-.1,1.424,1.424,0,0,0-1.245.632,3.2,3.2,0,0,0-.438,1.828v.274h2.473v.922H34.1v7.98Z" transform="translate(-31.696 -34.075)" fill="#fff"/>
      <path id="Path_60" data-name="Path 60" d="M44.058,48.424a4.29,4.29,0,0,1-3.185-1.368,4.616,4.616,0,0,1-.918-1.461,4.676,4.676,0,0,1-.326-1.742,4.77,4.77,0,0,1,.326-1.776,4.531,4.531,0,0,1,.927-1.461,4.394,4.394,0,0,1,1.416-1,4.3,4.3,0,0,1,1.778-.365,4.236,4.236,0,0,1,1.768.365,4.415,4.415,0,0,1,1.408,1,4.555,4.555,0,0,1,.927,1.461,4.784,4.784,0,0,1,.326,1.776,4.69,4.69,0,0,1-.326,1.742,4.63,4.63,0,0,1-.919,1.461,4.288,4.288,0,0,1-3.2,1.368M40.813,43.87a3.684,3.684,0,0,0,.438,1.79,3.387,3.387,0,0,0,1.176,1.273,2.993,2.993,0,0,0,1.631.466,2.955,2.955,0,0,0,1.631-.475,3.493,3.493,0,0,0,1.185-1.3,3.831,3.831,0,0,0,0-3.588,3.511,3.511,0,0,0-1.185-1.289,2.955,2.955,0,0,0-1.631-.475,2.84,2.84,0,0,0-1.623.492,3.7,3.7,0,0,0-1.622,3.1" transform="translate(-34.048 -35.61)" fill="#fff"/>
      <path id="Path_61" data-name="Path 61" d="M59.493,40.4a3.707,3.707,0,0,0-2.052.649A3.255,3.255,0,0,0,56.2,42.739v5.536H55.028V39.407h1.1v2.1a4.206,4.206,0,0,1,1.228-1.521,3.054,3.054,0,0,1,1.624-.649c.114-.011.215-.017.3-.017a1.137,1.137,0,0,1,.215.017Z" transform="translate(-38.616 -35.631)" fill="#fff"/>
      <path id="Path_62" data-name="Path 62" d="M73.638,46.962a3.69,3.69,0,0,1-1.941-.538,4.019,4.019,0,0,1-1.391-1.358v1.726H69.259V34.318h1.168V39.8a5.088,5.088,0,0,1,1.442-1.46,3.472,3.472,0,0,1,1.957-.555,3.6,3.6,0,0,1,1.692.39A4.047,4.047,0,0,1,76.8,39.223,4.652,4.652,0,0,1,77.6,40.7a5.318,5.318,0,0,1,.274,1.69,4.8,4.8,0,0,1-.317,1.75,4.622,4.622,0,0,1-.9,1.453,4.361,4.361,0,0,1-1.349,1,3.83,3.83,0,0,1-1.673.365m-.275-1.025a3.133,3.133,0,0,0,1.339-.288,3.211,3.211,0,0,0,1.064-.8,3.741,3.741,0,0,0,.927-2.46,3.931,3.931,0,0,0-.4-1.756,3.443,3.443,0,0,0-1.116-1.323,2.838,2.838,0,0,0-1.674-.5,2.752,2.752,0,0,0-1.279.305,3.685,3.685,0,0,0-1.048.806,4.687,4.687,0,0,0-.746,1.094v2.749a1.912,1.912,0,0,0,.361.856,2.805,2.805,0,0,0,.73.687,4.228,4.228,0,0,0,.919.458,2.772,2.772,0,0,0,.927.17" transform="translate(-42.835 -34.147)" fill="#fff"/>
      <path id="Path_63" data-name="Path 63" d="M84.2,44.652V39.443h1.168v5a3.966,3.966,0,0,0,.523,2.262,1.772,1.772,0,0,0,1.554.749,3.131,3.131,0,0,0,1.331-.3,3.5,3.5,0,0,0,1.142-.85,3.744,3.744,0,0,0,.755-1.282V39.443h1.168v7.469a.5.5,0,0,0,.1.348.455.455,0,0,0,.31.128v.923l-.326.025c-.08.006-.155.008-.223.008a.968.968,0,0,1-.592-.272.827.827,0,0,1-.267-.578L90.808,46.3a4.306,4.306,0,0,1-3.76,2.179,2.483,2.483,0,0,1-2.129-.97,4.752,4.752,0,0,1-.722-2.86" transform="translate(-47.264 -35.666)" fill="#fff"/>
      <path id="Path_64" data-name="Path 64" d="M101.442,48.424a5.7,5.7,0,0,1-2.043-.359,4.291,4.291,0,0,1-1.631-1.093l.48-.82a5.178,5.178,0,0,0,1.52,1.017,4.2,4.2,0,0,0,1.623.317,3.128,3.128,0,0,0,1.7-.415,1.333,1.333,0,0,0,.652-1.195,1.017,1.017,0,0,0-.318-.807,2.419,2.419,0,0,0-.91-.459q-.592-.178-1.417-.383a10.961,10.961,0,0,1-1.554-.535,2.293,2.293,0,0,1-.944-.713,1.859,1.859,0,0,1-.318-1.13,2.287,2.287,0,0,1,.438-1.436,2.727,2.727,0,0,1,1.2-.867,4.69,4.69,0,0,1,1.709-.3,4.755,4.755,0,0,1,1.82.324,3.337,3.337,0,0,1,1.288.905l-.567.786a2.982,2.982,0,0,0-1.142-.811,3.916,3.916,0,0,0-1.468-.265,3.742,3.742,0,0,0-1.047.145,1.8,1.8,0,0,0-.815.475,1.257,1.257,0,0,0-.317.908,1.056,1.056,0,0,0,.24.739,1.816,1.816,0,0,0,.722.442q.48.178,1.185.382,1.012.271,1.768.552a2.993,2.993,0,0,1,1.168.722,1.746,1.746,0,0,1,.412,1.24,2.269,2.269,0,0,1-.944,1.935,4.1,4.1,0,0,1-2.49.7" transform="translate(-51.288 -35.61)" fill="#fff"/>
      <path id="Path_65" data-name="Path 65" d="M110.605,37.923h1.168v8.867h-1.168Zm.052-3.605h1.064v1.657h-1.064Z" transform="translate(-55.094 -34.147)" fill="#fff"/>
      <path id="Path_66" data-name="Path 66" d="M123.447,48.253h-1.168V43.312a4.335,4.335,0,0,0-.464-2.283,1.609,1.609,0,0,0-1.46-.722,3.041,3.041,0,0,0-1.356.331,3.837,3.837,0,0,0-1.176.9,3.421,3.421,0,0,0-.73,1.3v5.42h-1.168V39.385h1.064v2.02a3.987,3.987,0,0,1,.945-1.13,4.473,4.473,0,0,1,1.322-.756,4.4,4.4,0,0,1,1.529-.272,2.664,2.664,0,0,1,1.254.272,2.108,2.108,0,0,1,.824.774,3.6,3.6,0,0,1,.447,1.206,8.316,8.316,0,0,1,.137,1.572Z" transform="translate(-56.673 -35.608)" fill="#fff"/>
      <path id="Path_67" data-name="Path 67" d="M133.759,48.425a4.36,4.36,0,0,1-3.211-1.37,4.652,4.652,0,0,1-.936-1.472,4.758,4.758,0,0,1-.335-1.788,4.6,4.6,0,0,1,.575-2.273,4.429,4.429,0,0,1,1.589-1.653,4.325,4.325,0,0,1,2.3-.619,4.212,4.212,0,0,1,2.31.628,4.521,4.521,0,0,1,1.554,1.655,4.575,4.575,0,0,1,.566,2.248v.263a.808.808,0,0,1-.018.195H130.5a3.853,3.853,0,0,0,.54,1.692,3.438,3.438,0,0,0,1.185,1.173,3.058,3.058,0,0,0,1.588.433,3.307,3.307,0,0,0,1.657-.444,2.454,2.454,0,0,0,1.09-1.162l1.013.273a3.336,3.336,0,0,1-.841,1.145,4.062,4.062,0,0,1-1.33.794,4.706,4.706,0,0,1-1.641.282m-3.3-5.024h6.611a3.628,3.628,0,0,0-.524-1.69,3.317,3.317,0,0,0-1.185-1.142,3.2,3.2,0,0,0-1.606-.414,3.155,3.155,0,0,0-1.6.414,3.312,3.312,0,0,0-1.176,1.149,3.645,3.645,0,0,0-.524,1.683" transform="translate(-60.631 -35.61)" fill="#fff"/>
      <path id="Path_68" data-name="Path 68" d="M147.108,48.424a5.7,5.7,0,0,1-2.043-.359,4.291,4.291,0,0,1-1.631-1.093l.48-.82a5.178,5.178,0,0,0,1.52,1.017,4.2,4.2,0,0,0,1.623.317,3.128,3.128,0,0,0,1.7-.415,1.333,1.333,0,0,0,.652-1.195,1.017,1.017,0,0,0-.318-.807,2.418,2.418,0,0,0-.91-.459q-.592-.178-1.417-.383a10.96,10.96,0,0,1-1.554-.535,2.293,2.293,0,0,1-.944-.713,1.86,1.86,0,0,1-.318-1.13,2.287,2.287,0,0,1,.438-1.436,2.727,2.727,0,0,1,1.2-.867,4.69,4.69,0,0,1,1.709-.3,4.755,4.755,0,0,1,1.82.324,3.337,3.337,0,0,1,1.288.905l-.567.786a2.982,2.982,0,0,0-1.142-.811,3.916,3.916,0,0,0-1.468-.265,3.742,3.742,0,0,0-1.047.145,1.8,1.8,0,0,0-.815.475,1.257,1.257,0,0,0-.317.908,1.056,1.056,0,0,0,.24.739,1.816,1.816,0,0,0,.722.442q.48.178,1.185.382,1.012.271,1.768.552a2.993,2.993,0,0,1,1.168.722,1.746,1.746,0,0,1,.412,1.24,2.269,2.269,0,0,1-.944,1.935,4.1,4.1,0,0,1-2.49.7" transform="translate(-64.829 -35.61)" fill="#fff"/>
      <path id="Path_69" data-name="Path 69" d="M158.9,48.424a5.7,5.7,0,0,1-2.043-.359,4.291,4.291,0,0,1-1.631-1.093l.48-.82a5.178,5.178,0,0,0,1.52,1.017,4.2,4.2,0,0,0,1.623.317,3.128,3.128,0,0,0,1.7-.415,1.333,1.333,0,0,0,.652-1.195,1.017,1.017,0,0,0-.318-.807,2.419,2.419,0,0,0-.91-.459q-.592-.178-1.417-.383A10.959,10.959,0,0,1,157,43.691a2.293,2.293,0,0,1-.944-.713,1.86,1.86,0,0,1-.318-1.13,2.287,2.287,0,0,1,.438-1.436,2.726,2.726,0,0,1,1.2-.867,4.69,4.69,0,0,1,1.709-.3,4.754,4.754,0,0,1,1.82.324,3.337,3.337,0,0,1,1.288.905l-.567.786a2.982,2.982,0,0,0-1.142-.811,3.916,3.916,0,0,0-1.468-.265,3.742,3.742,0,0,0-1.047.145,1.8,1.8,0,0,0-.815.475,1.258,1.258,0,0,0-.317.908,1.056,1.056,0,0,0,.24.739,1.816,1.816,0,0,0,.722.442q.48.178,1.185.382,1.012.271,1.768.552a2.993,2.993,0,0,1,1.168.722,1.746,1.746,0,0,1,.412,1.24,2.269,2.269,0,0,1-.944,1.935,4.1,4.1,0,0,1-2.49.7" transform="translate(-68.324 -35.61)" fill="#fff"/>
    </g>
  </g>
</svg>
