<svg xmlns="http://www.w3.org/2000/svg" width="100" height="111.167" viewBox="0 0 100 111.167">
  <path id="splash_icon" d="M96.635,30.27A46.332,46.332,0,0,0,70.944,3.877,53.324,53.324,0,0,0,50.1,0,54.1,54.1,0,0,0,29.142,3.877,45.6,45.6,0,0,0,13.385,14.6,48.339,48.339,0,0,0,3.46,30.27a51.959,51.959,0,0,0,0,37.289,48.311,48.311,0,0,0,9.925,15.668,44.423,44.423,0,0,0,11.142,8.236l23.1,18.692a4.539,4.539,0,0,0,5.763-.039L75.965,91.3A44.4,44.4,0,0,0,86.8,83.227a47.212,47.212,0,0,0,9.836-15.668A51.664,51.664,0,0,0,100,49,52.14,52.14,0,0,0,96.635,30.27M28.417,34.435a25.824,25.824,0,0,1,8.925-10.007A22.973,22.973,0,0,1,50.1,20.768,23.051,23.051,0,0,1,62.659,24.34a25.724,25.724,0,0,1,9.02,10.007,30.72,30.72,0,0,1,3.365,14.474,30.564,30.564,0,0,1-3.365,14.566,26.519,26.519,0,0,1-9.02,10A22.613,22.613,0,0,1,50.1,77.051a23.311,23.311,0,0,1-12.755-3.572,25.034,25.034,0,0,1-8.925-9.915A31.249,31.249,0,0,1,25.14,49a31.254,31.254,0,0,1,3.277-14.563" fill="#fff"/>
</svg>
